<svg xmlns="http://www.w3.org/2000/svg" width="922" height="139" viewBox="0 0 922 139" fill="none">
  <path fill="currentColor" d="M227.127 80.2998C227.147 80.8598 227.158 81.4234 227.158 81.9902V128.61C227.158 130.71 227.609 132.54 228.509 134.1C229.409 135.6 231.119 136.35 233.639 136.35C235.679 136.35 237.959 135.39 240.479 133.47C243.058 131.55 245.128 128.85 246.688 125.37L246.959 125.55C245.339 129.51 242.668 132.69 238.948 135.09C235.228 137.43 230.969 138.6 226.169 138.6C223.049 138.6 220.138 138.18 217.438 137.34C214.739 136.56 212.548 135.06 210.868 132.84C209.248 130.56 208.438 127.35 208.438 123.21V111.506C208.022 115.489 207.243 119.121 206.099 122.4C204.359 127.56 201.598 131.55 197.818 134.37C194.098 137.19 189.178 138.6 183.059 138.6C175.259 138.6 169.019 136.62 164.339 132.66C159.719 128.64 157.408 123.21 157.408 116.37C157.408 108.33 160.798 102.18 167.578 97.9199C174.358 93.5999 184.139 91.4404 196.919 91.4404H208.438V81.9902C208.438 81.4273 208.432 80.8637 208.421 80.2998H227.127ZM458.166 80.2998C458.186 80.8598 458.198 81.4234 458.198 81.9902V128.61C458.198 130.71 458.649 132.54 459.549 134.1C460.449 135.6 462.159 136.35 464.679 136.35C466.719 136.35 468.999 135.39 471.519 133.47C474.098 131.55 476.169 128.85 477.729 125.37L477.998 125.55C476.378 129.51 473.708 132.69 469.988 135.09C466.268 137.43 462.008 138.6 457.208 138.6C454.088 138.6 451.178 138.18 448.479 137.34C445.779 136.56 443.588 135.06 441.908 132.84C440.288 130.56 439.479 127.35 439.479 123.21V111.506C439.062 115.489 438.283 119.121 437.139 122.4C435.399 127.56 432.638 131.55 428.858 134.37C425.138 137.19 420.219 138.6 414.099 138.6C406.299 138.6 400.059 136.62 395.379 132.66C390.759 128.64 388.448 123.21 388.448 116.37C388.448 108.33 391.838 102.18 398.618 97.9199C405.398 93.6 415.178 91.4405 427.958 91.4404H439.479V81.9902C439.479 81.4273 439.472 80.8637 439.461 80.2998H458.166ZM882.878 80.2998C886.611 81.5821 890.534 82.8681 894.647 84.1504C899.267 85.5904 903.618 87.3898 907.698 89.5498C911.838 91.6498 915.197 94.4102 917.777 97.8301C920.417 101.19 921.738 105.57 921.738 110.97C921.738 116.55 920.328 121.41 917.508 125.55C914.748 129.69 910.968 132.9 906.168 135.18C901.428 137.46 896.208 138.6 890.508 138.6C885.888 138.6 881.568 137.85 877.548 136.35C873.528 134.85 869.988 132.78 866.928 130.14L857.658 138.6H857.298V112.68H857.658C858.198 117.48 859.968 121.8 862.968 125.64C866.028 129.48 869.898 132.51 874.578 134.73C879.258 136.95 884.268 138.06 889.607 138.06C893.327 138.06 896.808 137.52 900.048 136.44C903.348 135.36 906.018 133.65 908.058 131.31C910.098 128.91 911.118 125.729 911.118 121.77C911.118 118.05 909.888 115.14 907.428 113.04C904.968 110.94 901.758 109.23 897.798 107.91C893.838 106.53 889.638 105.18 885.198 103.86C880.818 102.54 876.648 100.89 872.688 98.9102C868.788 96.8702 865.578 94.1397 863.058 90.7197C861.091 87.937 859.911 84.4636 859.517 80.2998H882.878ZM30.9805 80.2998C30.8332 81.2429 30.7054 82.1963 30.5996 83.1602C30.0596 88.0201 29.79 92.5202 29.79 96.6602V136.44H39.96V136.8H0V136.44H11.1602V80.2998H29.79V87.7061C29.8899 86.2573 30.0088 84.7718 30.1504 83.25C30.2531 82.2568 30.3773 81.2734 30.5234 80.2998H30.9805ZM82.3086 80.2998C82.1542 81.2429 82.0179 82.1964 81.9004 83.1602C81.3604 88.0201 81.0898 92.5202 81.0898 96.6602V136.44H91.2598V136.8H52.2002V136.44H62.46V80.8203C62.46 80.6463 62.4575 80.4726 62.457 80.2998H81.0898V88.3086C81.2103 86.6699 81.3586 84.9835 81.54 83.25C81.6428 82.2568 81.7679 81.2735 81.9141 80.2998H82.3086ZM132.39 136.44H143.37V136.8H103.5V136.44H113.67V80.8203C113.67 80.6463 113.667 80.4726 113.667 80.2998H132.39V136.44ZM283.33 80.5498C282.73 85.8298 282.43 91.23 282.43 96.75V136.44H293.86V136.8H252.64V136.44H263.8V80.2998H282.43V86.5762C282.583 84.4528 282.785 82.3607 283.036 80.2998H283.362C283.352 80.383 283.34 80.4663 283.33 80.5498ZM363.683 136.44H374.663V136.8H333.893V136.44H344.963V80.2998H363.683V136.44ZM615.08 136.44H627.68V136.8H528.859V136.44H543.529V80.2998H561.979V136.44H596.359V80.2998H615.08V136.44ZM673.03 136.44H687.61V136.8H639.64V136.44H654.399V80.2998H673.03V136.44ZM729.88 80.2998C729.733 81.2429 729.605 82.1963 729.499 83.1602C728.959 88.0201 728.689 92.5202 728.689 96.6602V136.44H738.859V136.8H698.899V136.44H710.06V80.2998H728.689V87.7061C728.789 86.2573 728.907 84.7718 729.049 83.25C729.152 82.2568 729.277 81.2734 729.423 80.2998H729.88ZM781.208 80.2998C781.054 81.2429 780.916 82.1963 780.799 83.1602C780.259 88.0201 779.989 92.5202 779.989 96.6602V136.44H790.159V136.8H751.1V136.44H761.359V80.8203C761.359 80.6463 761.357 80.4726 761.356 80.2998H779.989V88.2998C780.11 86.6638 780.258 84.9804 780.439 83.25C780.542 82.2568 780.667 81.2735 780.813 80.2998H781.208ZM831.289 136.44H842.27V136.8H802.399V136.44H812.569V80.8203C812.569 80.6463 812.567 80.4726 812.566 80.2998H831.289V136.44ZM198.629 91.7998C193.589 91.7998 189.598 93.0899 186.658 95.6699C183.718 98.2499 181.589 101.34 180.269 104.94C179.009 108.54 178.379 111.96 178.379 115.2C178.379 118.14 178.708 121.17 179.368 124.29C180.088 127.41 181.289 130.02 182.969 132.12C184.709 134.22 187.078 135.269 190.078 135.27C193.438 135.27 196.499 134.22 199.259 132.12C202.019 129.96 204.239 126.6 205.919 122.04C207.599 117.48 208.438 111.57 208.438 104.31V91.7998H198.629ZM429.669 91.7998C424.629 91.7998 420.638 93.0899 417.698 95.6699C414.758 98.2499 412.629 101.34 411.309 104.94C410.049 108.54 409.419 111.96 409.419 115.2C409.419 118.14 409.748 121.17 410.408 124.29C411.128 127.41 412.329 130.02 414.009 132.12C415.749 134.22 418.118 135.269 421.118 135.27C424.478 135.27 427.539 134.22 430.299 132.12C433.059 129.96 435.278 126.6 436.958 122.04C438.533 117.765 439.37 112.303 439.469 105.655L439.479 104.31V91.7998H429.669ZM180.847 80.2998C178.945 81.3059 176.923 81.8096 174.778 81.8096C172.401 81.8095 170.326 81.306 168.552 80.2998H180.847ZM411.886 80.2998C409.984 81.3057 407.962 81.8096 405.818 81.8096C403.44 81.8096 401.365 81.3063 399.591 80.2998H411.886ZM29.79 72.2998H11.1602V54.3604H0V54H29.79V72.2998ZM56.5195 52.2002C62.7595 52.2002 67.6504 53.37 71.1904 55.71C74.7902 58.0499 77.3399 61.29 78.8398 65.4297C79.6244 67.5636 80.201 69.8541 80.5752 72.2998H62.2637C62.1773 70.5284 62.0639 68.8386 61.9199 67.2305C61.6199 63.1505 60.7804 59.9396 59.4004 57.5996C58.0804 55.1997 55.9199 54 52.9199 54C47.94 54 43.9203 55.4403 40.8604 58.3203C37.8004 61.1403 35.4598 64.77 33.8398 69.21C33.4643 70.2253 33.1192 71.2555 32.8018 72.2998H32.2793C32.6653 70.98 33.0946 69.6799 33.5703 68.4004C35.3703 63.6604 38.07 59.79 41.6699 56.79C45.3298 53.7301 50.2798 52.2003 56.5195 52.2002ZM107.82 52.2002C114.06 52.2002 118.95 53.37 122.49 55.71C126.09 58.0499 128.64 61.2899 130.14 65.4297C130.924 67.5636 131.501 69.8541 131.875 72.2998H113.474C113.387 70.5284 113.274 68.8386 113.13 67.2305C112.83 63.1505 112.02 59.9396 110.7 57.5996C109.38 55.1998 107.22 54 104.22 54C99.2399 54.0001 95.2201 55.4404 92.1602 58.3203C89.1002 61.1403 86.7596 64.77 85.1396 69.21C84.778 70.2252 84.4438 71.2555 84.1338 72.2998H83.6689C84.0549 70.98 84.4843 69.6799 84.96 68.4004C86.6999 63.6605 89.3698 59.79 92.9697 56.79C96.6297 53.73 101.58 52.2002 107.82 52.2002ZM196.198 52.5596C204.718 52.5596 211.199 53.97 215.639 56.79C220.139 59.55 223.168 63.1799 224.729 67.6797C225.272 69.1891 225.722 70.7297 226.083 72.2998H207.891C207.765 71.182 207.617 70.0622 207.448 68.9404C206.788 64.5004 205.288 60.8101 202.948 57.8701C200.668 54.9302 197.128 53.46 192.328 53.46C189.088 53.46 185.818 53.8798 182.519 54.7197C179.219 55.4997 176.159 56.6397 173.339 58.1396C170.579 59.6396 168.329 61.4999 166.589 63.7197C166.163 64.2677 165.791 64.8373 165.473 65.4277C165.948 64.7049 166.53 64.0459 167.219 63.4502C169.439 61.4703 171.958 60.4805 174.778 60.4805C177.718 60.4805 180.358 61.3799 182.698 63.1797C185.098 64.9797 186.299 67.5301 186.299 70.8301C186.299 71.3379 186.276 71.8277 186.231 72.2998H163.75C163.724 71.9396 163.709 71.5699 163.709 71.1904C163.709 68.1904 164.608 65.5495 166.408 63.2695C168.208 60.9896 170.638 59.0697 173.698 57.5098C176.818 55.8898 180.329 54.6603 184.229 53.8203C188.128 52.9803 192.118 52.5596 196.198 52.5596ZM282.43 72.2998H263.8V54.3604H252.64V54H282.43V72.2998ZM305.74 52.2002C309.28 52.2003 312.31 52.9502 314.83 54.4502C317.41 55.9501 319.39 57.9 320.77 60.2998C322.15 62.6998 322.84 65.3099 322.84 68.1299C322.84 69.6134 322.635 71.0034 322.226 72.2998H299.536C299.294 71.378 299.17 70.4083 299.17 69.3896C299.17 65.61 300.37 62.7001 302.77 60.6602C305.23 58.5602 307.99 57.5098 311.05 57.5098C313.27 57.5098 315.28 58.02 317.08 59.04C318.88 60 320.26 61.2902 321.22 62.9102C321.547 63.4102 321.821 63.9288 322.043 64.4658C321.7 63.076 321.157 61.7472 320.41 60.4805C319.09 58.1405 317.169 56.2496 314.649 54.8096C312.19 53.3098 309.22 52.5596 305.74 52.5596C300.94 52.5596 297.01 53.7901 293.95 56.25C290.95 58.71 288.58 62.0402 286.84 66.2402C286.079 68.143 285.424 70.1631 284.872 72.2998H284.519C285.107 70.0201 285.82 67.8796 286.66 65.8799C288.4 61.68 290.8 58.3496 293.86 55.8896C296.98 53.4299 300.94 52.2002 305.74 52.2002ZM363.683 72.2998H344.963V54.3604H333.893V54H363.683V72.2998ZM427.238 52.5596C435.758 52.5596 442.239 53.97 446.679 56.79C451.179 59.55 454.209 63.1799 455.769 67.6797C456.312 69.1891 456.762 70.7297 457.123 72.2998H438.931C438.805 71.182 438.657 70.0622 438.488 68.9404C437.828 64.5004 436.328 60.8101 433.988 57.8701C431.708 54.9301 428.168 53.46 423.368 53.46C420.128 53.46 416.858 53.8798 413.559 54.7197C410.259 55.4997 407.199 56.6398 404.379 58.1396C401.619 59.6396 399.369 61.4999 397.629 63.7197C397.204 64.2661 396.833 64.8343 396.516 65.4229C396.99 64.7019 397.572 64.0446 398.259 63.4502C400.479 61.4703 402.998 60.4805 405.818 60.4805C408.758 60.4805 411.398 61.3798 413.738 63.1797C416.138 64.9797 417.339 67.5301 417.339 70.8301C417.339 71.3379 417.316 71.8278 417.271 72.2998H394.79C394.764 71.9396 394.748 71.5699 394.748 71.1904C394.748 68.1904 395.648 65.5495 397.448 63.2695C399.248 60.9896 401.678 59.0697 404.738 57.5098C407.858 55.8898 411.369 54.6603 415.269 53.8203C419.168 52.9803 423.158 52.5596 427.238 52.5596ZM586.819 0C592.279 0 597.2 0.900197 601.58 2.7002C606.02 4.50013 609.529 6.81008 612.109 9.62988C614.689 12.4499 615.979 15.3902 615.979 18.4502C615.979 22.4101 614.84 25.4699 612.56 27.6299C610.28 29.7299 607.61 30.7803 604.55 30.7803C601.97 30.7803 599.449 29.9398 596.989 28.2598C594.59 26.5197 593.39 23.6996 593.39 19.7998C593.39 17.46 593.96 15.4802 595.1 13.8604C596.24 12.1804 597.65 10.8902 599.33 9.99023C601.07 9.0903 602.81 8.63965 604.55 8.63965C607.31 8.63966 609.86 9.53986 612.2 11.3398C613.164 12.0385 613.933 12.8394 614.51 13.7412C613.868 12.4053 612.95 11.0935 611.75 9.80957C609.23 7.04961 605.779 4.79955 601.399 3.05957C597.08 1.25969 592.219 0.360352 586.819 0.360352C581.419 0.360428 576.86 2.04047 573.14 5.40039C569.48 8.70035 566.69 13.32 564.77 19.2598C562.91 25.1397 561.98 31.9198 561.979 39.5996V54H615.08V72.2998H596.359V54.3604H561.979V72.2998H543.529V54.3604H528.859V54H543.529V44.7305C543.529 38.5506 544.55 32.7603 546.59 27.3604C548.69 21.9004 551.63 17.1298 555.41 13.0498C559.25 8.96996 563.81 5.78971 569.09 3.50977C574.43 1.16986 580.34 4.40809e-05 586.819 0ZM673.03 72.2998H654.399V2.16016H639.64V1.7998H673.03V72.2998ZM728.689 72.2998H710.06V54.3604H698.899V54H728.689V72.2998ZM755.419 52.2002C761.659 52.2002 766.549 53.3701 770.089 55.71C773.689 58.0499 776.239 61.2898 777.739 65.4297C778.524 67.5636 779.1 69.8541 779.475 72.2998H761.163C761.077 70.5284 760.963 68.8386 760.819 67.2305C760.519 63.1505 759.679 59.9396 758.299 57.5996C756.979 55.2 754.819 54 751.819 54C746.839 54 742.819 55.4403 739.759 58.3203C736.699 61.1403 734.359 64.7702 732.739 69.21C732.364 70.2252 732.019 71.2555 731.701 72.2998H731.178C731.564 70.9799 731.994 69.68 732.47 68.4004C734.27 63.6604 736.969 59.79 740.569 56.79C744.229 53.7301 749.179 52.2002 755.419 52.2002ZM806.72 52.2002C812.959 52.2003 817.85 53.37 821.39 55.71C824.989 58.0499 827.539 61.29 829.039 65.4297C829.824 67.5636 830.4 69.8541 830.774 72.2998H812.373C812.287 70.5284 812.173 68.8386 812.029 67.2305C811.729 63.1505 810.92 59.9396 809.6 57.5996C808.28 55.1997 806.119 54 803.119 54C798.139 54 794.12 55.4404 791.06 58.3203C788 61.1403 785.659 64.77 784.039 69.21C783.677 70.2252 783.343 71.2555 783.033 72.2998H782.568C782.954 70.98 783.384 69.6799 783.859 68.4004C785.599 63.6604 788.269 59.79 791.869 56.79C795.529 53.73 800.48 52.2002 806.72 52.2002ZM915.618 72.2998H914.105C913.322 70.0609 912.177 67.8607 910.668 65.7002C908.088 61.9202 904.637 58.8297 900.317 56.4297C895.997 53.9699 891.048 52.7402 885.468 52.7402C881.988 52.7402 878.898 53.2804 876.198 54.3604C873.498 55.3804 871.368 56.8804 869.808 58.8604C868.248 60.7803 867.468 63.1201 867.468 65.8799C867.468 68.3582 868.101 70.4979 869.365 72.2998H859.806C860.262 69.8716 861.076 67.5216 862.248 65.25C864.228 61.4702 867.138 58.3804 870.978 55.9805C874.818 53.5805 879.588 52.3799 885.288 52.3799C889.668 52.3799 893.628 53.1001 897.168 54.54C900.708 55.92 903.768 57.7802 906.348 60.1201L915.258 52.2002H915.618V72.2998ZM354.323 0C357.743 6.26392e-05 360.593 1.16989 362.873 3.50977C365.213 5.84967 366.383 8.69976 366.383 12.0596C366.383 15.3596 365.213 18.2103 362.873 20.6104C360.593 22.9502 357.743 24.1201 354.323 24.1201C351.023 24.1201 348.203 22.9501 345.863 20.6104C343.523 18.2103 342.353 15.3596 342.353 12.0596C342.353 8.69976 343.523 5.84967 345.863 3.50977C348.203 1.16994 351.023 0 354.323 0Z"/>
</svg>
