<svg xmlns="http://www.w3.org/2000/svg" width="347" height="320" viewBox="0 0 347 320" fill="none">
  <path fill="currentColor" d="M150.36 319.2H149.52L103.211 192.6H159.729L177.24 239.61L193.886 192.6H195.004L150.36 319.2ZM33.1797 314.16H65.7305V315H1.88965V314.16H32.3398V192.6H33.1797V314.16ZM317.521 314.16H346.92V315H228.69V314.16H262.5V192.6H317.521V314.16ZM87.9902 0L153.397 175.6H96.9922L33.1797 1.14746V175.6H32.3398V0.839844H0V0H87.9902ZM346.92 0V0.839844H317.521V175.6H262.5V1.19043L200.998 175.6H199.905L262.08 0H346.92Z"/>
</svg>
