<svg xmlns="http://www.w3.org/2000/svg" width="64" height="64" viewBox="0 0 64 64">
  <rect width="64" height="64" rx="14" fill="#FF007F"/>
  <path transform="translate(11.952 14.08) scale(0.112)" fill="#0B0B0C" d="M150.78 319.2H149.521L103.942 194.6H170.938L182.49 225.54L193.408 194.6H194.555L150.78 319.2ZM33.1797 314.16H65.9404V315H2.09961V314.16H32.3398V194.6H33.1797V314.16ZM327.81 314.16H357.21V315H228.9V314.16H262.5V194.6H327.81V314.16ZM98.2803 0L163.844 175.6H96.9922L33.1797 1.14746V175.6H32.3398V0.839844H0V0H98.2803ZM357.21 0V0.839844H327.81V175.6H262.5V1.19434L201.229 175.6H200.113L262.08 0H357.21Z"/>
</svg>
